<svg xmlns="http://www.w3.org/2000/svg" width="24" height="24" viewBox="0 0 6.35 6.35"><path style="fill:#fff;stroke-width:.999999" d="M.634 5.928c0-.164.156-.715.317-1.123a7.14 7.14 0 0 1 .408-.826 4.95 4.95 0 0 1 .468-.653c.71-.85 1.643-1.62 2.696-2.223.197-.113.632-.337.822-.422a.64.64 0 0 0 .093-.047 6.147 6.147 0 0 0-.491.193c-.21.092-.596.289-.804.408A8.627 8.627 0 0 0 2.366 2.58c-.722.715-1.168 1.31-1.515 2.014a3.54 3.54 0 0 1-.117.227C.698 4.864.645 4.814.6 4.694a2.375 2.375 0 0 1-.12-.67l.003-.084.075.14c.094.174.187.331.187.317a1.71 1.71 0 0 0-.016-.111 2.808 2.808 0 0 1-.03-.587c.017-.14.051-.21.245-.498.375-.558.65-.876.956-1.106.09-.067.305-.204.322-.204a.68.68 0 0 1-.005.081 1.986 1.986 0 0 0-.01.12c0 .038 0 .038.04-.028.077-.129.166-.236.327-.396.283-.28.61-.506 1.045-.72.252-.124.315-.148.96-.37.135-.046.409-.126.432-.126.006 0-.005.018-.024.04-.032.035-.074.105-.065.105.003 0 .053-.025.113-.055.238-.122.373-.157.598-.157.17 0 .214.012.232.066.016.045-.002.098-.068.2-.112.172-.227.27-.555.47a6.383 6.383 0 0 0-.323.21 5.482 5.482 0 0 0-.357.336 9.6 9.6 0 0 1-.402.385c-.443.38-.923.693-1.406.918-.083.04-.148.07-.144.07l.255-.044a3.95 3.95 0 0 1 .254-.04 3.24 3.24 0 0 1-.202.291c-.244.322-.504.6-.693.743a1.623 1.623 0 0 1-.383.212c-.026.008-.043.018-.039.023a.574.574 0 0 0 .187.044h.045l-.056.052a2.396 2.396 0 0 1-.75.461c-.026.008-.047.018-.047.022 0 .028.27.03.37.001.042-.011.076-.017.076-.012a.354.354 0 0 1-.051.065c-.098.11-.288.173-.495.167l-.106-.002-.042.11c-.055.143-.186.531-.238.7-.04.132-.061.164-.061.094z"/></svg>